<?xml version="1.0" encoding="UTF-8"?>
<svg xmlns="http://www.w3.org/2000/svg" viewBox="0 0 2560 1440" width="2560" height="1440" preserveAspectRatio="xMidYMid slice">
  <rect width="2560" height="1440" fill="#0d0e10"/>
  <rect width="2560" height="1440" fill="url(#g-bg)"/>
  
  <defs>
    <radialGradient id="g-glow" cx="50%" cy="50%" r="50%">
      <stop offset="0%"   stop-color="#fff8e8" stop-opacity="0.95"/>
      <stop offset="35%"  stop-color="#e9e7df" stop-opacity="0.50"/>
      <stop offset="70%"  stop-color="#a89f8e" stop-opacity="0.10"/>
      <stop offset="100%" stop-color="#000000" stop-opacity="0"/>
    </radialGradient>
    <radialGradient id="g-bg" cx="50%" cy="35%" r="65%">
      <stop offset="0%"   stop-color="#1a1814" stop-opacity="0.6"/>
      <stop offset="100%" stop-color="#0d0e10"   stop-opacity="0"/>
    </radialGradient>
  </defs>

  <g style="mix-blend-mode: screen">
      <line x1="1266.0" y1="753.9" x2="1306.3" y2="678.5" stroke="#a89f8e" stroke-width="0.9" stroke-opacity="0.119" />
      <line x1="1266.0" y1="753.9" x2="1003.6" y2="592.2" stroke="#a89f8e" stroke-width="0.9" stroke-opacity="0.107" />
      <line x1="1266.0" y1="753.9" x2="1108.2" y2="521.7" stroke="#a89f8e" stroke-width="0.9" stroke-opacity="0.101" />
      <line x1="1434.2" y1="771.4" x2="1477.3" y2="714.1" stroke="#a89f8e" stroke-width="0.9" stroke-opacity="0.150" />
      <line x1="1434.2" y1="771.4" x2="1512.8" y2="738.1" stroke="#a89f8e" stroke-width="0.9" stroke-opacity="0.140" />
      <line x1="1434.2" y1="771.4" x2="1616.0" y2="719.9" stroke="#a89f8e" stroke-width="0.9" stroke-opacity="0.139" />
      <line x1="1062.7" y1="846.2" x2="958.0" y2="834.3" stroke="#a89f8e" stroke-width="0.9" stroke-opacity="0.161" />
      <line x1="1062.7" y1="846.2" x2="814.0" y2="811.0" stroke="#a89f8e" stroke-width="0.9" stroke-opacity="0.132" />
      <line x1="1062.7" y1="846.2" x2="922.6" y2="717.3" stroke="#a89f8e" stroke-width="0.9" stroke-opacity="0.131" />
      <line x1="1444.4" y1="779.1" x2="1512.8" y2="738.1" stroke="#a89f8e" stroke-width="0.9" stroke-opacity="0.160" />
      <line x1="1444.4" y1="779.1" x2="1416.5" y2="754.7" stroke="#a89f8e" stroke-width="0.9" stroke-opacity="0.151" />
      <line x1="1444.4" y1="779.1" x2="1477.3" y2="714.1" stroke="#a89f8e" stroke-width="0.9" stroke-opacity="0.149" />
      <line x1="1016.3" y1="1022.1" x2="936.9" y2="957.5" stroke="#a89f8e" stroke-width="0.9" stroke-opacity="0.147" />
      <line x1="1016.3" y1="1022.1" x2="1037.7" y2="945.8" stroke="#a89f8e" stroke-width="0.9" stroke-opacity="0.146" />
      <line x1="1016.3" y1="1022.1" x2="727.6" y2="945.8" stroke="#a89f8e" stroke-width="0.9" stroke-opacity="0.123" />
      <line x1="1048.8" y1="487.5" x2="1227.6" y2="560.0" stroke="#a89f8e" stroke-width="0.9" stroke-opacity="0.133" />
      <line x1="1048.8" y1="487.5" x2="922.6" y2="717.3" stroke="#a89f8e" stroke-width="0.9" stroke-opacity="0.095" />
      <line x1="1048.8" y1="487.5" x2="1141.8" y2="543.7" stroke="#a89f8e" stroke-width="0.9" stroke-opacity="0.082" />
      <line x1="670.5" y1="962.2" x2="727.6" y2="945.8" stroke="#a89f8e" stroke-width="0.9" stroke-opacity="0.129" />
      <line x1="670.5" y1="962.2" x2="698.9" y2="856.4" stroke="#a89f8e" stroke-width="0.9" stroke-opacity="0.125" />
      <line x1="670.5" y1="962.2" x2="1037.7" y2="945.8" stroke="#a89f8e" stroke-width="0.9" stroke-opacity="0.106" />
      <line x1="1037.7" y1="945.8" x2="936.9" y2="957.5" stroke="#a89f8e" stroke-width="0.9" stroke-opacity="0.131" />
      <line x1="1037.7" y1="945.8" x2="727.6" y2="945.8" stroke="#a89f8e" stroke-width="0.9" stroke-opacity="0.123" />
      <line x1="264.1" y1="792.3" x2="698.9" y2="856.4" stroke="#a89f8e" stroke-width="0.9" stroke-opacity="0.093" />
      <line x1="264.1" y1="792.3" x2="727.6" y2="945.8" stroke="#a89f8e" stroke-width="0.9" stroke-opacity="0.081" />
      <line x1="264.1" y1="792.3" x2="809.5" y2="865.1" stroke="#a89f8e" stroke-width="0.9" stroke-opacity="0.078" />
      <line x1="1813.8" y1="448.8" x2="1544.4" y2="432.0" stroke="#a89f8e" stroke-width="0.9" stroke-opacity="0.126" />
      <line x1="1813.8" y1="448.8" x2="2092.0" y2="434.0" stroke="#a89f8e" stroke-width="0.9" stroke-opacity="0.122" />
      <line x1="1813.8" y1="448.8" x2="1681.4" y2="709.7" stroke="#a89f8e" stroke-width="0.9" stroke-opacity="0.094" />
      <line x1="1380.3" y1="1008.4" x2="1701.7" y2="952.1" stroke="#a89f8e" stroke-width="0.9" stroke-opacity="0.119" />
      <line x1="1380.3" y1="1008.4" x2="1246.6" y2="814.7" stroke="#a89f8e" stroke-width="0.9" stroke-opacity="0.114" />
      <line x1="1016.3" y1="1022.1" x2="1380.3" y2="1008.4" stroke="#a89f8e" stroke-width="0.9" stroke-opacity="0.109" />
      <line x1="1416.5" y1="754.7" x2="1246.6" y2="814.7" stroke="#a89f8e" stroke-width="0.9" stroke-opacity="0.143" />
      <line x1="1416.5" y1="754.7" x2="1512.8" y2="738.1" stroke="#a89f8e" stroke-width="0.9" stroke-opacity="0.140" />
      <line x1="1616.0" y1="719.9" x2="1681.4" y2="709.7" stroke="#a89f8e" stroke-width="0.9" stroke-opacity="0.159" />
      <line x1="1616.0" y1="719.9" x2="1477.3" y2="714.1" stroke="#a89f8e" stroke-width="0.9" stroke-opacity="0.155" />
      <line x1="1616.0" y1="719.9" x2="1512.8" y2="738.1" stroke="#a89f8e" stroke-width="0.9" stroke-opacity="0.154" />
      <line x1="1477.3" y1="714.1" x2="1512.8" y2="738.1" stroke="#a89f8e" stroke-width="0.9" stroke-opacity="0.163" />
      <line x1="1477.3" y1="714.1" x2="1488.4" y2="673.2" stroke="#a89f8e" stroke-width="0.9" stroke-opacity="0.158" />
      <line x1="1444.4" y1="779.1" x2="1701.7" y2="952.1" stroke="#a89f8e" stroke-width="0.9" stroke-opacity="0.108" />
      <line x1="1701.7" y1="952.1" x2="1860.8" y2="760.4" stroke="#a89f8e" stroke-width="0.9" stroke-opacity="0.105" />
      <line x1="922.6" y1="717.3" x2="958.0" y2="834.3" stroke="#a89f8e" stroke-width="0.9" stroke-opacity="0.141" />
      <line x1="922.6" y1="717.3" x2="814.0" y2="811.0" stroke="#a89f8e" stroke-width="0.9" stroke-opacity="0.136" />
      <line x1="1955.2" y1="692.2" x2="1860.8" y2="760.4" stroke="#a89f8e" stroke-width="0.9" stroke-opacity="0.142" />
      <line x1="1955.2" y1="692.2" x2="1864.8" y2="741.4" stroke="#a89f8e" stroke-width="0.9" stroke-opacity="0.141" />
      <line x1="1955.2" y1="692.2" x2="1743.0" y2="689.2" stroke="#a89f8e" stroke-width="0.9" stroke-opacity="0.134" />
      <line x1="1473.9" y1="813.8" x2="1611.1" y2="733.9" stroke="#a89f8e" stroke-width="0.9" stroke-opacity="0.141" />
      <line x1="1416.5" y1="754.7" x2="1473.9" y2="813.8" stroke="#a89f8e" stroke-width="0.9" stroke-opacity="0.139" />
      <line x1="1473.9" y1="813.8" x2="1306.3" y2="678.5" stroke="#a89f8e" stroke-width="0.9" stroke-opacity="0.122" />
      <line x1="2181.6" y1="947.4" x2="1993.7" y2="970.7" stroke="#a89f8e" stroke-width="0.9" stroke-opacity="0.145" />
      <line x1="1681.4" y1="709.7" x2="1512.8" y2="738.1" stroke="#a89f8e" stroke-width="0.9" stroke-opacity="0.149" />
      <line x1="1681.4" y1="709.7" x2="1488.4" y2="673.2" stroke="#a89f8e" stroke-width="0.9" stroke-opacity="0.144" />
      <line x1="1003.6" y1="592.2" x2="1108.2" y2="521.7" stroke="#a89f8e" stroke-width="0.9" stroke-opacity="0.149" />
      <line x1="1003.6" y1="592.2" x2="792.9" y2="674.2" stroke="#a89f8e" stroke-width="0.9" stroke-opacity="0.121" />
      <line x1="1003.6" y1="592.2" x2="1306.3" y2="678.5" stroke="#a89f8e" stroke-width="0.9" stroke-opacity="0.112" />
      <line x1="1544.4" y1="432.0" x2="1227.6" y2="560.0" stroke="#a89f8e" stroke-width="0.9" stroke-opacity="0.101" />
      <line x1="1544.4" y1="432.0" x2="1488.4" y2="673.2" stroke="#a89f8e" stroke-width="0.9" stroke-opacity="0.100" />
      <line x1="1611.1" y1="733.9" x2="1306.3" y2="678.5" stroke="#a89f8e" stroke-width="0.9" stroke-opacity="0.123" />
      <line x1="1416.5" y1="754.7" x2="1611.1" y2="733.9" stroke="#a89f8e" stroke-width="0.9" stroke-opacity="0.117" />
      <line x1="814.0" y1="811.0" x2="958.0" y2="834.3" stroke="#a89f8e" stroke-width="0.9" stroke-opacity="0.149" />
      <line x1="1293.4" y1="966.0" x2="1233.9" y2="796.4" stroke="#a89f8e" stroke-width="0.9" stroke-opacity="0.121" />
      <line x1="1293.4" y1="966.0" x2="1215.5" y2="782.5" stroke="#a89f8e" stroke-width="0.9" stroke-opacity="0.118" />
      <line x1="1062.7" y1="846.2" x2="1293.4" y2="966.0" stroke="#a89f8e" stroke-width="0.9" stroke-opacity="0.116" />
      <line x1="1864.8" y1="741.4" x2="1743.0" y2="689.2" stroke="#a89f8e" stroke-width="0.9" stroke-opacity="0.152" />
      <line x1="1864.8" y1="741.4" x2="1860.8" y2="760.4" stroke="#a89f8e" stroke-width="0.9" stroke-opacity="0.120" />
      <line x1="1681.4" y1="709.7" x2="1860.8" y2="760.4" stroke="#a89f8e" stroke-width="0.9" stroke-opacity="0.142" />
      <line x1="1616.0" y1="719.9" x2="1860.8" y2="760.4" stroke="#a89f8e" stroke-width="0.9" stroke-opacity="0.135" />
      <line x1="1611.1" y1="733.9" x2="1993.7" y2="970.7" stroke="#a89f8e" stroke-width="0.9" stroke-opacity="0.076" />
      <line x1="1701.7" y1="952.1" x2="1993.7" y2="970.7" stroke="#a89f8e" stroke-width="0.9" stroke-opacity="0.073" />
      <line x1="1616.0" y1="719.9" x2="1743.0" y2="689.2" stroke="#a89f8e" stroke-width="0.9" stroke-opacity="0.125" />
      <line x1="849.8" y1="425.8" x2="641.5" y2="505.7" stroke="#a89f8e" stroke-width="0.9" stroke-opacity="0.135" />
      <line x1="849.8" y1="425.8" x2="1141.8" y2="543.7" stroke="#a89f8e" stroke-width="0.9" stroke-opacity="0.115" />
      <line x1="849.8" y1="425.8" x2="792.9" y2="674.2" stroke="#a89f8e" stroke-width="0.9" stroke-opacity="0.098" />
      <line x1="1233.9" y1="796.4" x2="1215.5" y2="782.5" stroke="#a89f8e" stroke-width="0.9" stroke-opacity="0.172" />
      <line x1="1434.2" y1="771.4" x2="1233.9" y2="796.4" stroke="#a89f8e" stroke-width="0.9" stroke-opacity="0.135" />
      <line x1="1434.2" y1="771.4" x2="1215.5" y2="782.5" stroke="#a89f8e" stroke-width="0.9" stroke-opacity="0.136" />
      <line x1="1062.7" y1="846.2" x2="1215.5" y2="782.5" stroke="#a89f8e" stroke-width="0.9" stroke-opacity="0.122" />
      <line x1="1444.4" y1="779.1" x2="1246.6" y2="814.7" stroke="#a89f8e" stroke-width="0.9" stroke-opacity="0.139" />
      <line x1="1062.7" y1="846.2" x2="1246.6" y2="814.7" stroke="#a89f8e" stroke-width="0.9" stroke-opacity="0.130" />
      <line x1="1488.4" y1="673.2" x2="1512.8" y2="738.1" stroke="#a89f8e" stroke-width="0.9" stroke-opacity="0.159" />
      <line x1="1616.0" y1="719.9" x2="1488.4" y2="673.2" stroke="#a89f8e" stroke-width="0.9" stroke-opacity="0.146" />
      <line x1="1544.4" y1="432.0" x2="2092.0" y2="434.0" stroke="#a89f8e" stroke-width="0.9" stroke-opacity="0.083" />
      <line x1="641.5" y1="505.7" x2="792.9" y2="674.2" stroke="#a89f8e" stroke-width="0.9" stroke-opacity="0.117" />
      <line x1="641.5" y1="505.7" x2="1141.8" y2="543.7" stroke="#a89f8e" stroke-width="0.9" stroke-opacity="0.090" />
      <line x1="1141.8" y1="543.7" x2="1306.3" y2="678.5" stroke="#a89f8e" stroke-width="0.9" stroke-opacity="0.115" />
      <line x1="1141.8" y1="543.7" x2="1227.6" y2="560.0" stroke="#a89f8e" stroke-width="0.9" stroke-opacity="0.110" />
      <line x1="698.9" y1="856.4" x2="727.6" y2="945.8" stroke="#a89f8e" stroke-width="0.9" stroke-opacity="0.151" />
      <line x1="698.9" y1="856.4" x2="809.5" y2="865.1" stroke="#a89f8e" stroke-width="0.9" stroke-opacity="0.120" />
      <line x1="936.9" y1="957.5" x2="809.5" y2="865.1" stroke="#a89f8e" stroke-width="0.9" stroke-opacity="0.138" />
      <line x1="936.9" y1="957.5" x2="727.6" y2="945.8" stroke="#a89f8e" stroke-width="0.9" stroke-opacity="0.132" />
      <line x1="698.9" y1="856.4" x2="792.9" y2="674.2" stroke="#a89f8e" stroke-width="0.9" stroke-opacity="0.119" />
      <line x1="1860.8" y1="760.4" x2="2164.6" y2="830.8" stroke="#a89f8e" stroke-width="0.9" stroke-opacity="0.117" />
      <line x1="1955.2" y1="692.2" x2="2164.6" y2="830.8" stroke="#a89f8e" stroke-width="0.9" stroke-opacity="0.103" />
      <line x1="1701.7" y1="952.1" x2="2164.6" y2="830.8" stroke="#a89f8e" stroke-width="0.9" stroke-opacity="0.089" />
      <line x1="1488.4" y1="673.2" x2="1227.6" y2="560.0" stroke="#a89f8e" stroke-width="0.9" stroke-opacity="0.120" />
      <line x1="1477.3" y1="714.1" x2="1227.6" y2="560.0" stroke="#a89f8e" stroke-width="0.9" stroke-opacity="0.114" />
      <line x1="1306.3" y1="678.5" x2="1108.2" y2="521.7" stroke="#a89f8e" stroke-width="0.9" stroke-opacity="0.106" />
      <line x1="958.0" y1="834.3" x2="809.5" y2="865.1" stroke="#a89f8e" stroke-width="0.9" stroke-opacity="0.139" />
      <line x1="814.0" y1="811.0" x2="809.5" y2="865.1" stroke="#a89f8e" stroke-width="0.9" stroke-opacity="0.131" />
      <g transform="translate(1864.8 741.4)">
        <circle r="24.8" fill="url(#g-glow)" />
        <circle r="4.46" fill="#fff8e8" fill-opacity="0.628" />
      </g>
      <g transform="translate(1743.0 689.2)">
        <circle r="29.6" fill="url(#g-glow)" />
        <circle r="5.34" fill="#fff8e8" fill-opacity="0.633" />
      </g>
      <g transform="translate(1233.9 796.4)">
        <circle r="24.3" fill="url(#g-glow)" />
        <circle r="4.37" fill="#fff8e8" fill-opacity="0.637" />
      </g>
      <g transform="translate(1215.5 782.5)">
        <circle r="28.7" fill="url(#g-glow)" />
        <circle r="5.16" fill="#fff8e8" fill-opacity="0.642" />
      </g>
      <g transform="translate(1293.4 966.0)">
        <circle r="19.2" fill="url(#g-glow)" />
        <circle r="3.45" fill="#fff8e8" fill-opacity="0.657" />
      </g>
      <g transform="translate(1955.2 692.2)">
        <circle r="40.1" fill="url(#g-glow)" />
        <circle r="7.23" fill="#fff8e8" fill-opacity="0.658" />
      </g>
      <g transform="translate(1048.8 487.5)">
        <circle r="41.8" fill="url(#g-glow)" />
        <circle r="7.52" fill="#fff8e8" fill-opacity="0.660" />
      </g>
      <g transform="translate(1434.2 771.4)">
        <circle r="27.8" fill="url(#g-glow)" />
        <circle r="5.01" fill="#fff8e8" fill-opacity="0.661" />
      </g>
      <g transform="translate(814.0 811.0)">
        <circle r="19.3" fill="url(#g-glow)" />
        <circle r="3.47" fill="#fff8e8" fill-opacity="0.672" />
      </g>
      <g transform="translate(1616.0 719.9)">
        <circle r="24.5" fill="url(#g-glow)" />
        <circle r="4.41" fill="#fff8e8" fill-opacity="0.679" />
      </g>
      <g transform="translate(1477.3 714.1)">
        <circle r="39.2" fill="url(#g-glow)" />
        <circle r="7.06" fill="#fff8e8" fill-opacity="0.681" />
      </g>
      <g transform="translate(1860.8 760.4)">
        <circle r="37.8" fill="url(#g-glow)" />
        <circle r="6.81" fill="#fff8e8" fill-opacity="0.683" />
      </g>
      <g transform="translate(1227.6 560.0)">
        <circle r="24.9" fill="url(#g-glow)" />
        <circle r="4.48" fill="#fff8e8" fill-opacity="0.684" />
      </g>
      <g transform="translate(1062.7 846.2)">
        <circle r="31.3" fill="url(#g-glow)" />
        <circle r="5.63" fill="#fff8e8" fill-opacity="0.686" />
      </g>
      <g transform="translate(958.0 834.3)">
        <circle r="36.1" fill="url(#g-glow)" />
        <circle r="6.50" fill="#fff8e8" fill-opacity="0.686" />
      </g>
      <g transform="translate(1681.4 709.7)">
        <circle r="27.5" fill="url(#g-glow)" />
        <circle r="4.94" fill="#fff8e8" fill-opacity="0.694" />
      </g>
      <g transform="translate(1512.8 738.1)">
        <circle r="26.3" fill="url(#g-glow)" />
        <circle r="4.74" fill="#fff8e8" fill-opacity="0.695" />
      </g>
      <g transform="translate(922.6 717.3)">
        <circle r="39.7" fill="url(#g-glow)" />
        <circle r="7.15" fill="#fff8e8" fill-opacity="0.695" />
      </g>
      <g transform="translate(1813.8 448.8)">
        <circle r="22.6" fill="url(#g-glow)" />
        <circle r="4.07" fill="#fff8e8" fill-opacity="0.696" />
      </g>
      <g transform="translate(1488.4 673.2)">
        <circle r="47.4" fill="url(#g-glow)" />
        <circle r="8.54" fill="#fff8e8" fill-opacity="0.698" />
      </g>
      <g transform="translate(1444.4 779.1)">
        <circle r="19.9" fill="url(#g-glow)" />
        <circle r="3.58" fill="#fff8e8" fill-opacity="0.702" />
      </g>
      <g transform="translate(2164.6 830.8)">
        <circle r="36.4" fill="url(#g-glow)" />
        <circle r="6.55" fill="#fff8e8" fill-opacity="0.704" />
      </g>
      <g transform="translate(1701.7 952.1)">
        <circle r="24.2" fill="url(#g-glow)" />
        <circle r="4.36" fill="#fff8e8" fill-opacity="0.714" />
      </g>
      <g transform="translate(809.5 865.1)">
        <circle r="46.7" fill="url(#g-glow)" />
        <circle r="8.41" fill="#fff8e8" fill-opacity="0.714" />
      </g>
      <g transform="translate(1544.4 432.0)">
        <circle r="29.9" fill="url(#g-glow)" />
        <circle r="5.38" fill="#fff8e8" fill-opacity="0.719" />
      </g>
      <g transform="translate(1246.6 814.7)">
        <circle r="21.0" fill="url(#g-glow)" />
        <circle r="3.77" fill="#fff8e8" fill-opacity="0.719" />
      </g>
      <g transform="translate(2092.0 434.0)">
        <circle r="30.5" fill="url(#g-glow)" />
        <circle r="5.48" fill="#fff8e8" fill-opacity="0.725" />
      </g>
      <g transform="translate(1380.3 1008.4)">
        <circle r="24.0" fill="url(#g-glow)" />
        <circle r="4.32" fill="#fff8e8" fill-opacity="0.726" />
      </g>
      <g transform="translate(1416.5 754.7)">
        <circle r="48.6" fill="url(#g-glow)" />
        <circle r="8.75" fill="#fff8e8" fill-opacity="0.728" />
      </g>
      <g transform="translate(936.9 957.5)">
        <circle r="47.9" fill="url(#g-glow)" />
        <circle r="8.62" fill="#fff8e8" fill-opacity="0.732" />
      </g>
      <g transform="translate(264.1 792.3)">
        <circle r="45.2" fill="url(#g-glow)" />
        <circle r="8.14" fill="#fff8e8" fill-opacity="0.735" />
      </g>
      <g transform="translate(1141.8 543.7)">
        <circle r="30.4" fill="url(#g-glow)" />
        <circle r="5.48" fill="#fff8e8" fill-opacity="0.747" />
      </g>
      <g transform="translate(1016.3 1022.1)">
        <circle r="30.3" fill="url(#g-glow)" />
        <circle r="5.45" fill="#fff8e8" fill-opacity="0.753" />
      </g>
      <g transform="translate(849.8 425.8)">
        <circle r="24.9" fill="url(#g-glow)" />
        <circle r="4.48" fill="#fff8e8" fill-opacity="0.757" />
      </g>
      <g transform="translate(641.5 505.7)">
        <circle r="33.2" fill="url(#g-glow)" />
        <circle r="5.98" fill="#fff8e8" fill-opacity="0.758" />
      </g>
      <g transform="translate(1473.9 813.8)">
        <circle r="45.9" fill="url(#g-glow)" />
        <circle r="8.26" fill="#fff8e8" fill-opacity="0.760" />
      </g>
      <g transform="translate(727.6 945.8)">
        <circle r="30.9" fill="url(#g-glow)" />
        <circle r="5.57" fill="#fff8e8" fill-opacity="0.760" />
      </g>
      <g transform="translate(698.9 856.4)">
        <circle r="45.9" fill="url(#g-glow)" />
        <circle r="8.25" fill="#fff8e8" fill-opacity="0.766" />
      </g>
      <g transform="translate(1037.7 945.8)">
        <circle r="48.8" fill="url(#g-glow)" />
        <circle r="8.79" fill="#fff8e8" fill-opacity="0.774" />
      </g>
      <g transform="translate(1611.1 733.9)">
        <circle r="33.1" fill="url(#g-glow)" />
        <circle r="5.96" fill="#fff8e8" fill-opacity="0.776" />
      </g>
      <g transform="translate(792.9 674.2)">
        <circle r="42.5" fill="url(#g-glow)" />
        <circle r="7.66" fill="#fff8e8" fill-opacity="0.778" />
      </g>
      <g transform="translate(1306.3 678.5)">
        <circle r="42.5" fill="url(#g-glow)" />
        <circle r="7.65" fill="#fff8e8" fill-opacity="0.783" />
      </g>
      <g transform="translate(1993.7 970.7)">
        <circle r="22.5" fill="url(#g-glow)" />
        <circle r="4.05" fill="#fff8e8" fill-opacity="0.799" />
      </g>
      <g transform="translate(670.5 962.2)">
        <circle r="29.4" fill="url(#g-glow)" />
        <circle r="5.30" fill="#fff8e8" fill-opacity="0.806" />
      </g>
      <g transform="translate(2181.6 947.4)">
        <circle r="40.7" fill="url(#g-glow)" />
        <circle r="7.32" fill="#fff8e8" fill-opacity="0.806" />
      </g>
      <g transform="translate(1003.6 592.2)">
        <circle r="42.1" fill="url(#g-glow)" />
        <circle r="7.58" fill="#fff8e8" fill-opacity="0.813" />
      </g>
      <g transform="translate(1108.2 521.7)">
        <circle r="24.3" fill="url(#g-glow)" />
        <circle r="4.38" fill="#fff8e8" fill-opacity="0.823" />
      </g>
      <g transform="translate(1266.0 753.9)">
        <circle r="50.3" fill="url(#g-glow)" />
        <circle r="9.05" fill="#fff8e8" fill-opacity="0.835" />
      </g>
  </g>
</svg>
